<svg width="233" height="62" viewBox="0 0 233 62" fill="none" xmlns="http://www.w3.org/2000/svg">
<path d="M15.0312 47H11.5276C10.4 47 9.19193 46.8087 7.90327 46.4261C6.63475 46.0436 5.44676 45.4194 4.33932 44.5536C3.23188 43.6676 2.31572 42.53 1.59085 41.1406C0.86598 39.7312 0.503544 38.0096 0.503544 35.9759V0.547838H8.35632V35.9759C8.35632 36.9424 8.65834 37.7176 9.2624 38.3015C9.86646 38.8653 10.6215 39.1472 11.5276 39.1472H15.0312V47ZM28.0486 7.64554H20.1959V0.547838H28.0486V7.64554ZM28.0486 47H20.1959V14.3506H28.0486V47ZM71.1181 50.1411C71.1181 51.4902 70.9469 52.6983 70.6046 53.7655C70.2623 54.8528 69.8093 55.7991 69.2455 56.6045C68.6817 57.4301 68.0273 58.1248 67.2823 58.6885C66.5373 59.2725 65.752 59.7457 64.9265 60.1081C64.1211 60.4705 63.2955 60.7323 62.4498 60.8934C61.6243 61.0746 60.839 61.1652 60.094 61.1652H45.9288V53.3124H60.094C61.1612 53.3124 61.9565 53.0406 62.48 52.4969C63.0035 51.9533 63.2653 51.168 63.2653 50.1411V25.3445C63.2653 24.3176 63.0035 23.5424 62.48 23.0188C61.9565 22.4752 61.1612 22.2034 60.094 22.2034H45.9288C44.9623 22.2034 44.1972 22.5054 43.6334 23.1095C43.0696 23.6934 42.7877 24.4384 42.7877 25.3445V35.9759C42.7877 37.0028 43.0595 37.7881 43.6032 38.3317C44.1468 38.8754 44.9422 39.1472 45.9892 39.1472H60.094V47H45.9288C45.1838 47 44.3985 46.9195 43.573 46.7584C42.7474 46.5772 41.9219 46.3053 41.0963 45.9429C40.2909 45.5805 39.5157 45.1173 38.7707 44.5536C38.0257 43.9696 37.3713 43.275 36.8075 42.4696C36.2437 41.644 35.7907 40.6976 35.4484 39.6305C35.1061 38.5432 34.9349 37.325 34.9349 35.9759V25.3445C34.9349 24.5995 35.0155 23.8142 35.1765 22.9886C35.3578 22.1631 35.6296 21.3476 35.992 20.5422C36.3545 19.7167 36.8176 18.9314 37.3814 18.1864C37.9653 17.4414 38.66 16.787 39.4654 16.2232C40.2909 15.6594 41.2373 15.2063 42.3044 14.864C43.3716 14.5217 44.5797 14.3506 45.9288 14.3506H60.094C60.839 14.3506 61.6243 14.4412 62.4498 14.6224C63.2955 14.7835 64.1211 15.0453 64.9265 15.4077C65.752 15.7701 66.5373 16.2433 67.2823 16.8272C68.0273 17.391 68.6817 18.0857 69.2455 18.9112C69.8093 19.7167 70.2623 20.6529 70.6046 21.7201C70.9469 22.7873 71.1181 23.9954 71.1181 25.3445V50.1411ZM114.61 47H106.758V25.3445C106.758 24.3176 106.496 23.5424 105.972 23.0188C105.449 22.4752 104.664 22.2034 103.616 22.2034H89.4513V14.3506H103.616C104.361 14.3506 105.147 14.4412 105.972 14.6224C106.798 14.7835 107.613 15.0453 108.419 15.4077C109.244 15.7701 110.03 16.2433 110.775 16.8272C111.52 17.391 112.174 18.0857 112.738 18.9112C113.302 19.7167 113.755 20.6529 114.097 21.7201C114.439 22.7873 114.61 23.9954 114.61 25.3445V47ZM86.28 47H78.4272V0.547838H86.28V47ZM151.307 22.2034H137.595V47H129.651V22.2034H119.443V14.3506H129.651V3.68895H137.595V14.3506H151.307V22.2034ZM191.477 25.1633C191.477 26.2506 191.286 27.4285 190.903 28.697C190.52 29.9454 189.896 31.1132 189.03 32.2005C188.185 33.2677 187.067 34.1637 185.678 34.8886C184.309 35.6135 182.638 35.9759 180.664 35.9759H166.499V28.5158H180.664C181.731 28.5158 182.557 28.1936 183.141 27.5493C183.725 26.8848 184.017 26.0693 184.017 25.1028C184.017 24.0759 183.685 23.2705 183.02 22.6866C182.376 22.1027 181.59 21.8107 180.664 21.8107H166.499C165.432 21.8107 164.606 22.143 164.022 22.8074C163.438 23.4518 163.147 24.2572 163.147 25.2237V36.1873C163.147 37.2344 163.469 38.0499 164.113 38.6338C164.777 39.2177 165.593 39.5097 166.559 39.5097H180.664V47H166.499C165.412 47 164.234 46.8087 162.965 46.4261C161.717 46.0436 160.549 45.4294 159.462 44.5838C158.395 43.7179 157.499 42.6004 156.774 41.2312C156.049 39.8419 155.686 38.1606 155.686 36.1873V25.1633C155.686 24.0759 155.878 22.9081 156.26 21.6597C156.643 20.3912 157.257 19.2233 158.103 18.1562C158.968 17.0689 160.086 16.1628 161.455 15.4379C162.844 14.713 164.526 14.3506 166.499 14.3506H180.664C181.752 14.3506 182.919 14.5419 184.168 14.9244C185.436 15.307 186.604 15.9312 187.671 16.797C188.759 17.6427 189.665 18.7602 190.39 20.1496C191.114 21.5188 191.477 23.19 191.477 25.1633ZM232.583 35.9759C232.583 37.325 232.412 38.5432 232.07 39.6305C231.727 40.6976 231.274 41.644 230.711 42.4696C230.147 43.275 229.492 43.9696 228.747 44.5536C228.002 45.1173 227.217 45.5805 226.392 45.9429C225.586 46.3053 224.761 46.5772 223.915 46.7584C223.089 46.9195 222.304 47 221.559 47H207.394C206.045 47 204.837 46.8288 203.77 46.4865C202.702 46.1442 201.756 45.6912 200.93 45.1274C200.125 44.5435 199.43 43.879 198.846 43.134C198.283 42.389 197.82 41.6138 197.457 40.8084C197.095 39.9828 196.823 39.1573 196.642 38.3317C196.481 37.4861 196.4 36.7008 196.4 35.9759V25.3445C196.4 23.3309 196.762 21.6295 197.487 20.2402C198.232 18.8307 199.148 17.6931 200.236 16.8272C201.343 15.9413 202.541 15.307 203.83 14.9244C205.119 14.5419 206.307 14.3506 207.394 14.3506H221.559V22.2034H207.454C206.407 22.2034 205.612 22.4752 205.068 23.0188C204.525 23.5424 204.253 24.3176 204.253 25.3445V35.9155C204.253 36.9827 204.515 37.7881 205.038 38.3317C205.582 38.8754 206.367 39.1472 207.394 39.1472H221.559C222.626 39.1472 223.422 38.8754 223.945 38.3317C224.469 37.7881 224.73 37.0028 224.73 35.9759V0.547838H232.583V35.9759Z" fill="#14D2BA"/>
</svg>
